<svg xmlns="http://www.w3.org/2000/svg" viewBox="0 0 390.15 100"><defs><style>.cls-1{fill:#f19940;}.cls-2{fill:#6ac4ca;}.cls-3{fill:#19a2a5;}.cls-4{fill:none;}</style></defs><g id="圖層_2" data-name="圖層 2"><g id="圖層_1-2" data-name="圖層 1"><path class="cls-1" d="M138.21,26.94a2.91,2.91,0,0,1-.52,3.45L127.58,40.5l-3.72,3.72L94.73,73.35a1.12,1.12,0,0,1-1.9-.93A23.76,23.76,0,0,0,93,70,23.15,23.15,0,0,0,83.3,51.17L72.18,44.26a2.93,2.93,0,0,1-.53-4.56L74.39,37l4.35-4.34L95,16.37l.16-.17.08-.09.45-.45.07-.07A20,20,0,0,1,109.68,10l.67,0,.67,0A32.46,32.46,0,0,1,138.21,26.94Z"/><path class="cls-2" d="M59.09,50a24.72,24.72,0,0,1-.91,6.65C54.64,69.43,39.59,75,28.37,68l-3.55-2.21L24,65.22a5.58,5.58,0,0,1-.56-.39l-.78-.54-.81-.64c-.32-.25-.64-.5-.94-.77s-.6-.52-.89-.78l-.91-.88c-.29-.28-.57-.58-.84-.87s-.56-.61-.82-.91-.61-.71-.9-1.08l-.83-1.09-.08-.11c-.25-.36-.51-.72-.75-1.1s-.51-.79-.75-1.19-.49-.82-.71-1.24-.37-.69-.54-1l-.09-.2c-.16-.32-.32-.64-.45-1s-.2-.43-.29-.65-.28-.69-.42-1a32.15,32.15,0,0,1-1.27-4.15c-.08-.33-.15-.67-.21-1v0a28.76,28.76,0,0,1-.46-3.09c0-.32-.06-.64-.08-1a2.29,2.29,0,0,1,0-.25c0-.27,0-.54,0-.82s0-.8,0-1.2,0-.82,0-1.22a32.26,32.26,0,0,1,8-20.1,2.9,2.9,0,0,1,3.72-.53l9.5,5.91,4.86,3L52.71,35.93a12.12,12.12,0,0,1,5.22,6.6A24.84,24.84,0,0,1,59.09,50Z"/><path class="cls-3" d="M89.64,68a20.08,20.08,0,0,0-8.15-14.14l-.15-.09-1.1-.69-7.46-4.63-6.06-3.77-2.1-1.31a1.81,1.81,0,0,0-2.74,1.84A32.63,32.63,0,0,1,62.3,50a28,28,0,0,1-1,7.52A22.85,22.85,0,0,1,47.56,72.63a10.17,10.17,0,0,1-1.58.58,2.93,2.93,0,0,0-.74,5.3l13.85,8.61a20.06,20.06,0,0,0,24.62-2.71l.15-.15.26-.26a20,20,0,0,0,5.62-13.92A20.55,20.55,0,0,0,89.64,68Z"/><path class="cls-2" d="M229.45,26.89a5.46,5.46,0,0,0-1.62,3.95V53.3c0,9.82-4,11.08-7.54,11.08-2,0-7.37,0-7.37-11.08V30.91a5.58,5.58,0,0,0-1.67-4,5.75,5.75,0,0,0-8,0,5.56,5.56,0,0,0-1.66,4V52.78c0,18.23,10.19,22,18.74,22s18.63-3.82,18.63-22V30.84a5.46,5.46,0,0,0-1.58-3.92A5.6,5.6,0,0,0,229.45,26.89Z"/><path class="cls-2" d="M378.64,26.91a5.61,5.61,0,0,0-7.9,0,5.46,5.46,0,0,0-1.61,3.94V53.3c0,9.82-4,11.08-7.54,11.08-2,0-7.36,0-7.36-11.08V30.91a5.59,5.59,0,0,0-1.68-4,5.73,5.73,0,0,0-8,0,5.56,5.56,0,0,0-1.66,4V52.78c0,18.23,10.19,22,18.74,22s18.64-3.82,18.64-22V30.84A5.52,5.52,0,0,0,378.64,26.91Z"/><path class="cls-1" d="M285.81,28.39l-11.2,13.08a1.81,1.81,0,0,1-3-.3L268,34.6a1.82,1.82,0,0,1,.17-2l3.08-3.82a9.18,9.18,0,0,1,7.36-3.52h.83a8.92,8.92,0,0,1,6.36,2.61A.38.38,0,0,1,285.81,28.39Z"/><path class="cls-2" d="M285.33,67.76l-13.55-23,0,0-4.67-8.42a1.11,1.11,0,0,0-1.84-.16l-5.06,6.28V30.91a5.67,5.67,0,0,0-1.62-4,5.78,5.78,0,0,0-8.11,0,5.57,5.57,0,0,0-1.66,4V68.4a5.47,5.47,0,0,0,1.67,4,5.79,5.79,0,0,0,8.08,0,5.55,5.55,0,0,0,1.64-4V59.29L264.56,54l9.22,16a8.31,8.31,0,0,0,7.14,4.07h.82a4.25,4.25,0,0,0,4.19-4.15A4.4,4.4,0,0,0,285.33,67.76Z"/><path class="cls-1" d="M332.81,28.39l-11.2,13.08a1.8,1.8,0,0,1-2.95-.3L315,34.6a1.84,1.84,0,0,1,.18-2l3.08-3.82a9.15,9.15,0,0,1,7.36-3.52h.82a8.9,8.9,0,0,1,6.36,2.61A.36.36,0,0,1,332.81,28.39Z"/><path class="cls-2" d="M332.33,67.76l-13.55-23,0,0-4.67-8.42a1.12,1.12,0,0,0-1.85-.16l-5.06,6.28V30.91a5.62,5.62,0,0,0-1.62-4,5.78,5.78,0,0,0-8.11,0,5.61,5.61,0,0,0-1.66,4V68.4a5.47,5.47,0,0,0,1.67,4,5.79,5.79,0,0,0,8.08,0,5.51,5.51,0,0,0,1.64-4V59.29L311.57,54l9.21,16a8.25,8.25,0,0,0,3.05,3,8.12,8.12,0,0,0,4.09,1.08h.82a4.23,4.23,0,0,0,4.19-4.15A4.4,4.4,0,0,0,332.33,67.76Z"/><path class="cls-2" d="M188.77,50.42a12.8,12.8,0,0,0-3.4-2.75,11.6,11.6,0,0,0,1.83-2.25,13.07,13.07,0,0,0,2-7c0-4.53-1.8-8-5.22-10.2-3.13-2-7.39-3-12.66-3H161a5.7,5.7,0,0,0-5.66,5.67V68.4a5.47,5.47,0,0,0,1.67,4,5.54,5.54,0,0,0,4,1.67h11.39c5.6,0,10.19-1.25,13.64-3.73,3.69-2.63,5.57-6.49,5.57-11.47A12.51,12.51,0,0,0,188.77,50.42ZM166.82,35l.35-.76a.35.35,0,0,1,.47-.16l5.86,3.08a4.31,4.31,0,0,1,1.87,5.49,3.66,3.66,0,0,1-5.16,1.67l-.18-.09A7.2,7.2,0,0,1,166.82,35ZM178,62.62a4.72,4.72,0,0,1-6.65,2.15l-.23-.11A9.29,9.29,0,0,1,167,52.75l.45-1a.44.44,0,0,1,.6-.21l7.57,4A5.54,5.54,0,0,1,178,62.62Z"/><rect class="cls-4" width="390.15" height="100"/></g></g></svg>