<svg width="67" height="67" viewBox="0 0 67 67" fill="none" xmlns="http://www.w3.org/2000/svg">
<path d="M37.8553 33.3568C36.5536 34.6586 34.443 34.6586 33.1413 33.3568C31.8395 32.0551 31.8395 29.9445 33.1413 28.6428C34.443 27.341 36.5536 27.341 37.8553 28.6428C39.1571 29.9445 39.1571 32.0551 37.8553 33.3568Z" fill="#3F3F45"/>
<path d="M37.8553 33.3568C36.5536 34.6586 34.443 34.6586 33.1413 33.3568C31.8395 32.0551 31.8395 29.9445 33.1413 28.6428C34.443 27.341 36.5536 27.341 37.8553 28.6428C39.1571 29.9445 39.1571 32.0551 37.8553 33.3568Z" fill="black" fill-opacity="0.2"/>
<path d="M28.4272 19.2147C27.1255 20.5164 25.0149 20.5164 23.7132 19.2147C22.4115 17.9129 22.4115 15.8024 23.7132 14.5006C25.0149 13.1989 27.1255 13.1989 28.4272 14.5006C29.729 15.8024 29.729 17.9129 28.4272 19.2147Z" fill="#3F3F45"/>
<path d="M28.4272 19.2147C27.1255 20.5164 25.0149 20.5164 23.7132 19.2147C22.4115 17.9129 22.4115 15.8024 23.7132 14.5006C25.0149 13.1989 27.1255 13.1989 28.4272 14.5006C29.729 15.8024 29.729 17.9129 28.4272 19.2147Z" fill="black" fill-opacity="0.2"/>
<path d="M51.9975 42.7849C50.6957 44.0866 48.5852 44.0866 47.2834 42.7849C45.9817 41.4831 45.9817 39.3726 47.2834 38.0708C48.5852 36.7691 50.6957 36.7691 51.9975 38.0708C53.2992 39.3726 53.2992 41.4831 51.9975 42.7849Z" fill="#3F3F45"/>
<path d="M51.9975 42.7849C50.6957 44.0866 48.5852 44.0866 47.2834 42.7849C45.9817 41.4831 45.9817 39.3726 47.2834 38.0708C48.5852 36.7691 50.6957 36.7691 51.9975 38.0708C53.2992 39.3726 53.2992 41.4831 51.9975 42.7849Z" fill="black" fill-opacity="0.2"/>
<path fill-rule="evenodd" clip-rule="evenodd" d="M22.5124 5.38955C19.3437 4.84793 17.4537 5.43951 16.4625 6.4307C15.719 7.17423 15.2049 8.39539 15.2178 10.3277C15.2307 12.2725 15.7865 14.7308 16.9545 17.5721C19.286 23.2438 23.862 29.9694 30.1953 36.3028C36.5287 42.6361 43.2543 47.2121 48.926 49.5436C51.7673 50.7116 54.2256 51.2674 56.1704 51.2803C58.1027 51.2932 59.3239 50.7791 60.0674 50.0356C61.0586 49.0444 61.6502 47.1544 61.1085 43.9857C60.6871 41.5199 59.6163 38.5825 57.9103 35.3749C57.223 35.7307 56.364 35.9497 55.3737 35.7719C52.9712 35.3405 48.4515 33.3464 40.8016 25.6965C33.1517 18.0466 31.1576 13.5269 30.7262 11.1244C30.5484 10.1341 30.7674 9.27506 31.1232 8.58776C27.9156 6.88176 24.9782 5.81104 22.5124 5.38955ZM34.9507 4.99138C30.8826 2.65758 26.9059 1.06803 23.3548 0.461034C19.4671 -0.20349 15.577 0.245134 12.927 2.89516C10.954 4.86815 10.1992 7.554 10.2179 10.361C10.2365 13.1555 11.0128 16.2688 12.3299 19.4731C14.9688 25.8924 19.9757 33.1542 26.6598 39.8383C33.3439 46.5224 40.6057 51.5293 47.025 54.1681C50.2293 55.4853 53.3426 56.2616 56.1371 56.2802C58.9441 56.2989 61.6299 55.5441 63.6029 53.5711C66.253 50.9211 66.7016 47.031 66.0371 43.1433C65.4301 39.5922 63.8405 35.6155 61.5067 31.5474C66.1337 24.4657 65.3377 14.8772 59.1186 8.65813L57.84 7.3795C51.6209 1.16042 42.0324 0.364384 34.9507 4.99138ZM35.7631 10.7051C36.1887 12.1041 37.8653 15.6891 44.3372 22.1609C50.809 28.6328 54.394 30.3094 55.793 30.735C60.7614 25.5409 60.6915 17.302 55.5831 12.1937L54.3044 10.915C49.1961 5.80665 40.9572 5.73666 35.7631 10.7051ZM11.3388 26.875C12.3151 27.8513 12.3151 29.4342 11.3388 30.4105L4.26777 37.4816C3.29146 38.4579 1.70854 38.4579 0.732233 37.4816C-0.244078 36.5053 -0.244078 34.9224 0.732233 33.9461L7.8033 26.875C8.77961 25.8987 10.3625 25.8987 11.3388 26.875ZM23.1239 43.3742C24.1003 44.3505 24.1003 45.9334 23.1239 46.9097L9.38621 60.6474C8.4099 61.6237 6.82699 61.6237 5.85068 60.6474C4.87437 59.6711 4.87437 58.0882 5.85068 57.1119L19.5884 43.3742C20.5647 42.3978 22.1476 42.3978 23.1239 43.3742ZM39.6231 55.1593C40.5994 56.1356 40.5994 57.7185 39.6231 58.6948L32.552 65.7659C31.5757 66.7422 29.9928 66.7422 29.0165 65.7659C28.0402 64.7895 28.0402 63.2066 29.0165 62.2303L36.0876 55.1593C37.0639 54.183 38.6468 54.183 39.6231 55.1593Z" fill="#3F3F45"/>
<path fill-rule="evenodd" clip-rule="evenodd" d="M22.5124 5.38955C19.3437 4.84793 17.4537 5.43951 16.4625 6.4307C15.719 7.17423 15.2049 8.39539 15.2178 10.3277C15.2307 12.2725 15.7865 14.7308 16.9545 17.5721C19.286 23.2438 23.862 29.9694 30.1953 36.3028C36.5287 42.6361 43.2543 47.2121 48.926 49.5436C51.7673 50.7116 54.2256 51.2674 56.1704 51.2803C58.1027 51.2932 59.3239 50.7791 60.0674 50.0356C61.0586 49.0444 61.6502 47.1544 61.1085 43.9857C60.6871 41.5199 59.6163 38.5825 57.9103 35.3749C57.223 35.7307 56.364 35.9497 55.3737 35.7719C52.9712 35.3405 48.4515 33.3464 40.8016 25.6965C33.1517 18.0466 31.1576 13.5269 30.7262 11.1244C30.5484 10.1341 30.7674 9.27506 31.1232 8.58776C27.9156 6.88176 24.9782 5.81104 22.5124 5.38955ZM34.9507 4.99138C30.8826 2.65758 26.9059 1.06803 23.3548 0.461034C19.4671 -0.20349 15.577 0.245134 12.927 2.89516C10.954 4.86815 10.1992 7.554 10.2179 10.361C10.2365 13.1555 11.0128 16.2688 12.3299 19.4731C14.9688 25.8924 19.9757 33.1542 26.6598 39.8383C33.3439 46.5224 40.6057 51.5293 47.025 54.1681C50.2293 55.4853 53.3426 56.2616 56.1371 56.2802C58.9441 56.2989 61.6299 55.5441 63.6029 53.5711C66.253 50.9211 66.7016 47.031 66.0371 43.1433C65.4301 39.5922 63.8405 35.6155 61.5067 31.5474C66.1337 24.4657 65.3377 14.8772 59.1186 8.65813L57.84 7.3795C51.6209 1.16042 42.0324 0.364384 34.9507 4.99138ZM35.7631 10.7051C36.1887 12.1041 37.8653 15.6891 44.3372 22.1609C50.809 28.6328 54.394 30.3094 55.793 30.735C60.7614 25.5409 60.6915 17.302 55.5831 12.1937L54.3044 10.915C49.1961 5.80665 40.9572 5.73666 35.7631 10.7051ZM11.3388 26.875C12.3151 27.8513 12.3151 29.4342 11.3388 30.4105L4.26777 37.4816C3.29146 38.4579 1.70854 38.4579 0.732233 37.4816C-0.244078 36.5053 -0.244078 34.9224 0.732233 33.9461L7.8033 26.875C8.77961 25.8987 10.3625 25.8987 11.3388 26.875ZM23.1239 43.3742C24.1003 44.3505 24.1003 45.9334 23.1239 46.9097L9.38621 60.6474C8.4099 61.6237 6.82699 61.6237 5.85068 60.6474C4.87437 59.6711 4.87437 58.0882 5.85068 57.1119L19.5884 43.3742C20.5647 42.3978 22.1476 42.3978 23.1239 43.3742ZM39.6231 55.1593C40.5994 56.1356 40.5994 57.7185 39.6231 58.6948L32.552 65.7659C31.5757 66.7422 29.9928 66.7422 29.0165 65.7659C28.0402 64.7895 28.0402 63.2066 29.0165 62.2303L36.0876 55.1593C37.0639 54.183 38.6468 54.183 39.6231 55.1593Z" fill="black" fill-opacity="0.2"/>
</svg>
