<svg width="657" height="60" viewBox="0 0 657 60" fill="none" xmlns="http://www.w3.org/2000/svg">
<g clip-path="url(#clip0_3095_92688)">
<rect width="657" height="60" rx="8" fill="#FAFAFA"/>
<path d="M88 0L28 60" stroke="#E4E4E7"/>
<path d="M17 0L-43 60" stroke="#E4E4E7"/>
<path d="M41 0L-19 60" stroke="#E4E4E7"/>
<path d="M64 0L4 60" stroke="#E4E4E7"/>
<path d="M111 0L51 60" stroke="#E4E4E7"/>
<path d="M135 0L75 60" stroke="#E4E4E7"/>
<path d="M158 0L98 61" stroke="#E4E4E7"/>
<path d="M253 0L193 60" stroke="#E4E4E7"/>
<path d="M182 0L122 60" stroke="#E4E4E7"/>
<path d="M206 0L146 60" stroke="#E4E4E7"/>
<path d="M229 0L169 60" stroke="#E4E4E7"/>
<path d="M277 0L216 60" stroke="#E4E4E7"/>
<path d="M300 0L240 60" stroke="#E4E4E7"/>
<path d="M324 0L264 60" stroke="#E4E4E7"/>
<path d="M347 0L287 60" stroke="#E4E4E7"/>
<path d="M371 0L311 60" stroke="#E4E4E7"/>
<path d="M394 0L334 60" stroke="#E4E4E7"/>
<path d="M418 0L358 60" stroke="#E4E4E7"/>
<path d="M442 0L382 60" stroke="#E4E4E7"/>
<path d="M465 0L405 60" stroke="#E4E4E7"/>
<path d="M489 0L429 60" stroke="#E4E4E7"/>
<path d="M536 0L476 60" stroke="#E4E4E7"/>
<path d="M559 0L499 60" stroke="#E4E4E7"/>
<path d="M583 0L523 60" stroke="#E4E4E7"/>
<path d="M512 0L452 60" stroke="#E4E4E7"/>
<path d="M489 0L429 60" stroke="#E4E4E7"/>
<path d="M606 0L546 60" stroke="#E4E4E7"/>
<path d="M536 0L476 60" stroke="#E4E4E7"/>
<path d="M653 0L593 60" stroke="#E4E4E7"/>
<path d="M559 0L499 60" stroke="#E4E4E7"/>
<path d="M676 0L616 60" stroke="#E4E4E7"/>
<path d="M583 0L523 60" stroke="#E4E4E7"/>
<path d="M700 0L640 60" stroke="#E4E4E7"/>
<path d="M512 0L452 60" stroke="#E4E4E7"/>
<path d="M629 0L569 60" stroke="#E4E4E7"/>
</g>
<defs>
<clipPath id="clip0_3095_92688">
<rect width="657" height="60" rx="8" fill="white"/>
</clipPath>
</defs>
</svg>
